<svg aria-hidden="true" style="position: absolute; width: 0; height: 0; overflow: hidden;" version="1.1" xmlns="http://www.w3.org/2000/svg" xmlns:xlink="http://www.w3.org/1999/xlink">
<defs>
<svg id="icon-Ellipse-1" viewBox="0 0 22 32">
<path fill="#ffab08" style="fill: var(--color1, #ffab08)" d="M32.488 10.702c0 11.763-9.536 21.298-21.298 21.298s-21.298-9.536-21.298-21.298c0-11.763 9.536-21.298 21.298-21.298s21.298 9.536 21.298 21.298z"></path>
</svg>
<svg id="icon-Ellipse-1-1" viewBox="0 0 70 32">
<path fill="#ffab08" style="fill: var(--color1, #ffab08)" d="M151.656-84.447c0 64.312-52.135 116.447-116.447 116.447s-116.447-52.135-116.447-116.447c0-64.312 52.135-116.447 116.447-116.447s116.447 52.135 116.447 116.447z"></path>
</svg>
<svg id="icon-Ellipse-1-2" viewBox="0 0 99 32">
<path fill="#ffab08" style="fill: var(--color1, #ffab08)" d="M148.326-66.884c0 54.612-44.272 98.884-98.884 98.884s-98.884-44.272-98.884-98.884c0-54.612 44.272-98.884 98.884-98.884s98.884 44.272 98.884 98.884z"></path>
</svg>
</defs>
</svg>
